# xmcd
# 
# Track frame offsets:
#     183
#     19388
#     41123
#     59735
# 
# Disc length: 1086
# 
# Revision: 2
# Processed by: cddbd v1.5.2PL0 Copyright (c) Steve Scherf et al.
# Submitted via: BonkEnc v1.0.8
# 
DISCID=38043c04
DTITLE=Boyz II Men - Uhh Ahh
DYEAR=1992
DGENRE=JPop
TTITLE0=Uhh Ahh (Remix Radio Edit Sequel Version)
TTITLE1=Uhh Ahh (Remix)
TTITLE2=Uhh Ahh (Remix Pop Version)
TTITLE3=Uhh Ahh (Remix Sequel Version With French Girl)
EXTD=YEAR: 2003
EXTT0=
EXTT1=
EXTT2=
EXTT3=
PLAYORDER=
